<svg xmlns="http://www.w3.org/2000/svg" style="display:none">

  <!-- Detection: Radar/Eye -->
  <symbol id="icon-detection" viewBox="0 0 24 24" fill="none" stroke="currentColor" stroke-width="1.5" stroke-linecap="round" stroke-linejoin="round">
    <circle cx="12" cy="12" r="10"/>
    <circle cx="12" cy="12" r="6"/>
    <circle cx="12" cy="12" r="2"/>
    <line x1="12" y1="2" x2="12" y2="4"/>
    <line x1="12" y1="20" x2="12" y2="22"/>
    <line x1="2" y1="12" x2="4" y2="12"/>
    <line x1="20" y1="12" x2="22" y2="12"/>
  </symbol>

  <!-- Absorption: Shield -->
  <symbol id="icon-absorption" viewBox="0 0 24 24" fill="none" stroke="currentColor" stroke-width="1.5" stroke-linecap="round" stroke-linejoin="round">
    <path d="M12 2L3 7v6c0 5.25 3.75 10.15 9 11.25C17.25 23.15 21 18.25 21 13V7l-9-5z"/>
    <path d="M9 12l2 2 4-4"/>
  </symbol>

  <!-- Adaptation: Gears/Adjust -->
  <symbol id="icon-adaptation" viewBox="0 0 24 24" fill="none" stroke="currentColor" stroke-width="1.5" stroke-linecap="round" stroke-linejoin="round">
    <circle cx="12" cy="12" r="3"/>
    <path d="M19.4 15a1.65 1.65 0 0 0 .33 1.82l.06.06a2 2 0 1 1-2.83 2.83l-.06-.06a1.65 1.65 0 0 0-1.82-.33 1.65 1.65 0 0 0-1 1.51V21a2 2 0 0 1-4 0v-.09A1.65 1.65 0 0 0 9 19.4a1.65 1.65 0 0 0-1.82.33l-.06.06a2 2 0 1 1-2.83-2.83l.06-.06A1.65 1.65 0 0 0 4.68 15a1.65 1.65 0 0 0-1.51-1H3a2 2 0 0 1 0-4h.09A1.65 1.65 0 0 0 4.6 9a1.65 1.65 0 0 0-.33-1.82l-.06-.06a2 2 0 1 1 2.83-2.83l.06.06A1.65 1.65 0 0 0 9 4.68a1.65 1.65 0 0 0 1-1.51V3a2 2 0 0 1 4 0v.09a1.65 1.65 0 0 0 1 1.51 1.65 1.65 0 0 0 1.82-.33l.06-.06a2 2 0 1 1 2.83 2.83l-.06.06A1.65 1.65 0 0 0 19.4 9a1.65 1.65 0 0 0 1.51 1H21a2 2 0 0 1 0 4h-.09a1.65 1.65 0 0 0-1.51 1z"/>
  </symbol>

  <!-- Recovery: Refresh/Restore -->
  <symbol id="icon-recovery" viewBox="0 0 24 24" fill="none" stroke="currentColor" stroke-width="1.5" stroke-linecap="round" stroke-linejoin="round">
    <polyline points="1 4 1 10 7 10"/>
    <polyline points="23 20 23 14 17 14"/>
    <path d="M20.49 9A9 9 0 0 0 5.64 5.64L1 10"/>
    <path d="M3.51 15A9 9 0 0 0 18.36 18.36L23 14"/>
  </symbol>

  <!-- Evolution: Trending Up / DNA -->
  <symbol id="icon-evolution" viewBox="0 0 24 24" fill="none" stroke="currentColor" stroke-width="1.5" stroke-linecap="round" stroke-linejoin="round">
    <polyline points="23 6 13.5 15.5 8.5 10.5 1 18"/>
    <polyline points="17 6 23 6 23 12"/>
  </symbol>

  <!-- Dashboard -->
  <symbol id="icon-dashboard" viewBox="0 0 24 24" fill="none" stroke="currentColor" stroke-width="1.5" stroke-linecap="round" stroke-linejoin="round">
    <rect x="3" y="3" width="7" height="7" rx="1"/>
    <rect x="14" y="3" width="7" height="7" rx="1"/>
    <rect x="3" y="14" width="7" height="7" rx="1"/>
    <rect x="14" y="14" width="7" height="7" rx="1"/>
  </symbol>

  <!-- Alert/Warning -->
  <symbol id="icon-alert" viewBox="0 0 24 24" fill="none" stroke="currentColor" stroke-width="1.5" stroke-linecap="round" stroke-linejoin="round">
    <path d="M10.29 3.86L1.82 18a2 2 0 0 0 1.71 3h16.94a2 2 0 0 0 1.71-3L13.71 3.86a2 2 0 0 0-3.42 0z"/>
    <line x1="12" y1="9" x2="12" y2="13"/>
    <line x1="12" y1="17" x2="12.01" y2="17"/>
  </symbol>

  <!-- Chaos/Lightning -->
  <symbol id="icon-chaos" viewBox="0 0 24 24" fill="none" stroke="currentColor" stroke-width="1.5" stroke-linecap="round" stroke-linejoin="round">
    <polygon points="13 2 3 14 12 14 11 22 21 10 12 10 13 2"/>
  </symbol>

  <!-- Service/Server -->
  <symbol id="icon-service" viewBox="0 0 24 24" fill="none" stroke="currentColor" stroke-width="1.5" stroke-linecap="round" stroke-linejoin="round">
    <rect x="2" y="2" width="20" height="8" rx="2" ry="2"/>
    <rect x="2" y="14" width="20" height="8" rx="2" ry="2"/>
    <line x1="6" y1="6" x2="6.01" y2="6"/>
    <line x1="6" y1="18" x2="6.01" y2="18"/>
  </symbol>

  <!-- Healthy Check -->
  <symbol id="icon-healthy" viewBox="0 0 24 24" fill="none" stroke="currentColor" stroke-width="1.5" stroke-linecap="round" stroke-linejoin="round">
    <path d="M22 11.08V12a10 10 0 1 1-5.93-9.14"/>
    <polyline points="22 4 12 14.01 9 11.01"/>
  </symbol>

  <!-- Unhealthy/X -->
  <symbol id="icon-unhealthy" viewBox="0 0 24 24" fill="none" stroke="currentColor" stroke-width="1.5" stroke-linecap="round" stroke-linejoin="round">
    <circle cx="12" cy="12" r="10"/>
    <line x1="15" y1="9" x2="9" y2="15"/>
    <line x1="9" y1="9" x2="15" y2="15"/>
  </symbol>

  <!-- Metrics/Chart -->
  <symbol id="icon-metrics" viewBox="0 0 24 24" fill="none" stroke="currentColor" stroke-width="1.5" stroke-linecap="round" stroke-linejoin="round">
    <line x1="18" y1="20" x2="18" y2="10"/>
    <line x1="12" y1="20" x2="12" y2="4"/>
    <line x1="6" y1="20" x2="6" y2="14"/>
    <line x1="2" y1="20" x2="22" y2="20"/>
  </symbol>

  <!-- Incident/Fire -->
  <symbol id="icon-incident" viewBox="0 0 24 24" fill="none" stroke="currentColor" stroke-width="1.5" stroke-linecap="round" stroke-linejoin="round">
    <path d="M12 2c0 4-4 6-4 10a4 4 0 0 0 8 0c0-4-4-6-4-10z"/>
    <path d="M12 22v-4"/>
  </symbol>

  <!-- Clock/Time -->
  <symbol id="icon-clock" viewBox="0 0 24 24" fill="none" stroke="currentColor" stroke-width="1.5" stroke-linecap="round" stroke-linejoin="round">
    <circle cx="12" cy="12" r="10"/>
    <polyline points="12 6 12 12 16 14"/>
  </symbol>

  <!-- digiSpace Logo Mark -->
  <symbol id="icon-digispace" viewBox="0 0 24 24" fill="none" stroke="currentColor" stroke-width="1.5" stroke-linecap="round" stroke-linejoin="round">
    <polygon points="12 2 22 8.5 22 15.5 12 22 2 15.5 2 8.5 12 2"/>
    <line x1="12" y1="22" x2="12" y2="15.5"/>
    <line x1="22" y1="8.5" x2="12" y2="15.5"/>
    <line x1="2" y1="8.5" x2="12" y2="15.5"/>
  </symbol>

</svg>
